#N canvas 718 143 886 434 10;
#X obj 34 42 dumpOSC 12000;
#X obj 37 70 route /msg;
#X obj 19 111 route A;
#X obj 71 112 route B;
#X obj 121 113 route C;
#X floatatom 14 141 5 0 0 0 - - -;
#X floatatom 70 137 5 0 0 0 - - -;
#X floatatom 123 134 5 0 0 0 - - -;
#X obj 319 409 dac~ 1 2;
#X obj 22 269 osc~;
#X obj 13 168 *;
#X floatatom 544 145 5 0 0 0 - - -;
#X obj 79 178 *;
#X obj 125 179 *;
#X obj 82 270 osc~;
#X obj 129 272 osc~;
#X obj 735 127 vsl 15 128 0 2 0 0 empty empty empty 0 -9 0 10 -261682
-1 -1 241 1;
#X obj 735 63 loadbang;
#X msg 733 85 76;
#X floatatom 757 240 5 0 0 0 - - -;
#X msg 768 84 0.062;
#X floatatom 179 135 5 0 0 0 - - -;
#X obj 181 180 *;
#X obj 185 273 osc~;
#X obj 177 114 route D;
#X obj 628 31 route volume;
#X floatatom 246 145 5 0 0 0 - - -;
#X floatatom 302 141 5 0 0 0 - - -;
#X floatatom 355 138 5 0 0 0 - - -;
#X obj 249 263 osc~;
#X obj 245 172 *;
#X obj 311 182 *;
#X obj 357 183 *;
#X obj 314 274 osc~;
#X obj 361 276 osc~;
#X floatatom 411 139 5 0 0 0 - - -;
#X obj 413 184 *;
#X obj 417 277 osc~;
#X obj 251 115 route E;
#X obj 303 116 route F;
#X obj 353 117 route G;
#X obj 409 118 route H;
#X obj 560 53 route tune;
#X obj 478 66 route reset;
#X msg 494 85 0;
#X obj 231 353 *~;
#X obj 255 356 *~;
#X obj 281 354 *~;
#X obj 307 355 *~;
#X obj 349 355 *~;
#X obj 373 358 *~;
#X obj 399 356 *~;
#X obj 425 357 *~;
#X msg 670 128 \; pd dsp 1;
#X obj 499 197 t b b b b b b b b;
#N canvas 11 46 450 300 modulor 0;
#X obj 148 118 +;
#X obj 165 92 random 1000.1;
#X obj 175 116 / 1000.1;
#X obj 128 45 inlet;
#X obj 190 46 inlet;
#X obj 149 173 outlet;
#X connect 0 0 5 0;
#X connect 1 0 2 0;
#X connect 2 0 0 1;
#X connect 3 0 0 0;
#X connect 4 0 1 0;
#X restore 14 223 pd modulor;
#N canvas 11 46 450 300 modulor 0;
#X obj 148 118 +;
#X obj 165 92 random 1000.1;
#X obj 175 116 / 1000.1;
#X obj 128 45 inlet;
#X obj 190 46 inlet;
#X obj 149 173 outlet;
#X connect 0 0 5 0;
#X connect 1 0 2 0;
#X connect 2 0 0 1;
#X connect 3 0 0 0;
#X connect 4 0 1 0;
#X restore 61 247 pd modulor;
#N canvas 11 46 450 300 modulor 0;
#X obj 148 118 +;
#X obj 165 92 random 1000.1;
#X obj 175 116 / 1000.1;
#X obj 128 45 inlet;
#X obj 190 46 inlet;
#X obj 149 173 outlet;
#X connect 0 0 5 0;
#X connect 1 0 2 0;
#X connect 2 0 0 1;
#X connect 3 0 0 0;
#X connect 4 0 1 0;
#X restore 107 223 pd modulor;
#N canvas 11 46 450 300 modulor 0;
#X obj 148 118 +;
#X obj 165 92 random 1000.1;
#X obj 175 116 / 1000.1;
#X obj 128 45 inlet;
#X obj 190 46 inlet;
#X obj 149 173 outlet;
#X connect 0 0 5 0;
#X connect 1 0 2 0;
#X connect 2 0 0 1;
#X connect 3 0 0 0;
#X connect 4 0 1 0;
#X restore 158 246 pd modulor;
#N canvas 11 46 450 300 modulor 0;
#X obj 148 118 +;
#X obj 165 92 random 1000.1;
#X obj 175 116 / 1000.1;
#X obj 128 45 inlet;
#X obj 190 46 inlet;
#X obj 149 173 outlet;
#X connect 0 0 5 0;
#X connect 1 0 2 0;
#X connect 2 0 0 1;
#X connect 3 0 0 0;
#X connect 4 0 1 0;
#X restore 255 230 pd modulor;
#N canvas 11 46 450 300 modulor 0;
#X obj 148 118 +;
#X obj 165 92 random 1000.1;
#X obj 175 116 / 1000.1;
#X obj 128 45 inlet;
#X obj 190 46 inlet;
#X obj 149 173 outlet;
#X connect 0 0 5 0;
#X connect 1 0 2 0;
#X connect 2 0 0 1;
#X connect 3 0 0 0;
#X connect 4 0 1 0;
#X restore 282 251 pd modulor;
#N canvas 11 46 450 300 modulor 0;
#X obj 148 118 +;
#X obj 165 92 random 1000.1;
#X obj 175 116 / 1000.1;
#X obj 128 45 inlet;
#X obj 190 46 inlet;
#X obj 149 173 outlet;
#X connect 0 0 5 0;
#X connect 1 0 2 0;
#X connect 2 0 0 1;
#X connect 3 0 0 0;
#X connect 4 0 1 0;
#X restore 331 215 pd modulor;
#N canvas 11 46 450 300 modulor 0;
#X obj 148 118 +;
#X obj 165 92 random 1000.1;
#X obj 175 116 / 1000.1;
#X obj 128 45 inlet;
#X obj 190 46 inlet;
#X obj 149 173 outlet;
#X connect 0 0 5 0;
#X connect 1 0 2 0;
#X connect 2 0 0 1;
#X connect 3 0 0 0;
#X connect 4 0 1 0;
#X restore 368 236 pd modulor;
#X connect 0 0 1 0;
#X connect 1 0 2 0;
#X connect 1 0 3 0;
#X connect 1 0 4 0;
#X connect 1 0 24 0;
#X connect 1 0 25 0;
#X connect 1 0 38 0;
#X connect 1 0 39 0;
#X connect 1 0 40 0;
#X connect 1 0 41 0;
#X connect 1 0 42 0;
#X connect 1 0 43 0;
#X connect 2 0 5 0;
#X connect 3 0 6 0;
#X connect 4 0 7 0;
#X connect 5 0 10 0;
#X connect 6 0 12 0;
#X connect 7 0 13 0;
#X connect 9 0 45 0;
#X connect 10 0 55 0;
#X connect 11 0 13 1;
#X connect 11 0 12 1;
#X connect 11 0 10 1;
#X connect 11 0 22 1;
#X connect 11 0 30 1;
#X connect 11 0 31 1;
#X connect 11 0 32 1;
#X connect 11 0 36 1;
#X connect 12 0 56 0;
#X connect 13 0 57 0;
#X connect 14 0 46 0;
#X connect 15 0 47 0;
#X connect 16 0 19 0;
#X connect 16 0 52 1;
#X connect 16 0 51 1;
#X connect 16 0 50 1;
#X connect 16 0 49 1;
#X connect 16 0 48 1;
#X connect 16 0 47 1;
#X connect 16 0 46 1;
#X connect 16 0 45 1;
#X connect 17 0 18 0;
#X connect 17 0 20 0;
#X connect 17 0 53 0;
#X connect 17 0 54 0;
#X connect 18 0 11 0;
#X connect 20 0 16 0;
#X connect 21 0 22 0;
#X connect 22 0 58 0;
#X connect 23 0 48 0;
#X connect 24 0 21 0;
#X connect 25 0 16 0;
#X connect 26 0 30 0;
#X connect 27 0 31 0;
#X connect 28 0 32 0;
#X connect 29 0 49 0;
#X connect 30 0 59 0;
#X connect 31 0 60 0;
#X connect 32 0 61 0;
#X connect 33 0 50 0;
#X connect 34 0 51 0;
#X connect 35 0 36 0;
#X connect 36 0 62 0;
#X connect 37 0 52 0;
#X connect 38 0 26 0;
#X connect 39 0 27 0;
#X connect 40 0 28 0;
#X connect 41 0 35 0;
#X connect 42 0 11 0;
#X connect 43 0 44 0;
#X connect 44 0 21 0;
#X connect 44 0 7 0;
#X connect 44 0 6 0;
#X connect 44 0 5 0;
#X connect 44 0 26 0;
#X connect 44 0 27 0;
#X connect 44 0 28 0;
#X connect 44 0 35 0;
#X connect 45 0 8 0;
#X connect 45 0 8 1;
#X connect 46 0 8 0;
#X connect 46 0 8 1;
#X connect 47 0 8 0;
#X connect 47 0 8 1;
#X connect 48 0 8 0;
#X connect 48 0 8 1;
#X connect 49 0 8 0;
#X connect 49 0 8 1;
#X connect 50 0 8 0;
#X connect 50 0 8 1;
#X connect 51 0 8 0;
#X connect 51 0 8 1;
#X connect 52 0 8 0;
#X connect 52 0 8 1;
#X connect 54 0 55 1;
#X connect 54 1 56 1;
#X connect 54 2 57 1;
#X connect 54 3 58 1;
#X connect 54 4 60 1;
#X connect 54 5 59 1;
#X connect 54 6 61 1;
#X connect 54 7 62 1;
#X connect 55 0 9 0;
#X connect 56 0 14 0;
#X connect 57 0 15 0;
#X connect 58 0 23 0;
#X connect 59 0 29 0;
#X connect 60 0 33 0;
#X connect 61 0 34 0;
#X connect 62 0 37 0;
