#N canvas 518 95 656 721 10;
#X obj 34 218 kofCnt;
#X obj 32 152 tgl 15 0 empty empty empty 0 -6 0 10 -262144 -1 -1 1
1;
#X floatatom 65 150 5 0 0 0 - - -;
#X obj 37 327 osc~;
#X obj 42 397 *~;
#X obj 267 65 vsl 8 50 0 1 0 0 empty empty empty 0 -8 0 10 -260097
-1 -1 725 1;
#X obj 90 467 dac~;
#X obj 36 306 * 100;
#X obj 99 405 r Q;
#X obj 267 121 s Q;
#X obj 96 346 osc~;
#X obj 168 373 osc~;
#X obj 168 354 * 25;
#X obj 96 327 * 50;
#X obj 182 331 kofMod4 2 3 2 5;
#X obj 95 307 kofMod4 2 3 2 5;
#X obj 37 275 kofMod4 2 3 2 5;
#X obj 416 297 kofCnt;
#X obj 414 358 sin;
#X floatatom 414 388 5 0 0 0 - - -;
#X obj 406 260 tgl 15 0 empty empty empty 0 -6 0 10 -262144 -1 -1 1
1;
#X floatatom 439 258 5 0 0 0 - - -;
#X obj 422 329 / 10;
#X obj 128 439 *~;
#X obj 80 437 *~;
#X obj 338 296 kofCnt;
#X obj 336 357 sin;
#X floatatom 336 387 5 0 0 0 - - -;
#X obj 328 259 tgl 15 0 empty empty empty 0 -6 0 10 -262144 -1 -1 1
1;
#X floatatom 361 257 5 0 0 0 - - -;
#X obj 344 328 / 10;
#X msg 124 224 2 4 2 2;
#X msg 183 221 2 4 3 2;
#X obj 155 111 kofCnt;
#X obj 153 84 tgl 15 0 empty empty empty 0 -6 0 10 -262144 -1 -1 1
1;
#X floatatom 186 82 5 0 0 0 - - -;
#X obj 152 133 kofMod4 2 4 5 11;
#X msg 247 225 2 5 11 2;
#X floatatom 151 155 5 0 0 0 - - -;
#X msg 126 200 bang;
#X obj 126 177 sel 2;
#X msg 179 201 bang;
#X obj 179 178 sel 7;
#X msg 244 199 bang;
#X obj 244 176 sel 5;
#X msg 384 220 33;
#X obj 93 107 sel 3;
#X obj 30 4 loadbang;
#X msg 195 57 120;
#X msg 60 73 120;
#X msg 355 220 5;
#X msg 416 219 120;
#X msg 346 77 0.25;
#X obj 220 409 line~;
#X obj 286 437 line~;
#X connect 0 0 16 0;
#X connect 1 0 0 0;
#X connect 2 0 0 1;
#X connect 3 0 4 0;
#X connect 4 0 24 0;
#X connect 4 0 23 0;
#X connect 5 0 9 0;
#X connect 7 0 3 0;
#X connect 8 0 4 1;
#X connect 10 0 4 0;
#X connect 11 0 4 0;
#X connect 12 0 11 0;
#X connect 13 0 10 0;
#X connect 14 0 12 0;
#X connect 15 0 13 0;
#X connect 15 0 14 0;
#X connect 16 0 7 0;
#X connect 16 0 15 0;
#X connect 17 0 22 0;
#X connect 18 0 19 0;
#X connect 19 0 54 1;
#X connect 20 0 17 0;
#X connect 21 0 17 1;
#X connect 22 0 18 0;
#X connect 23 0 6 1;
#X connect 24 0 6 0;
#X connect 25 0 30 0;
#X connect 26 0 27 0;
#X connect 27 0 53 1;
#X connect 28 0 25 0;
#X connect 29 0 25 1;
#X connect 30 0 26 0;
#X connect 31 0 16 1;
#X connect 31 0 15 1;
#X connect 31 0 14 1;
#X connect 32 0 16 1;
#X connect 32 0 15 1;
#X connect 32 0 14 1;
#X connect 33 0 36 0;
#X connect 34 0 33 0;
#X connect 35 0 33 1;
#X connect 36 0 38 0;
#X connect 37 0 16 1;
#X connect 37 0 15 1;
#X connect 37 0 14 1;
#X connect 38 0 40 0;
#X connect 38 0 42 0;
#X connect 38 0 44 0;
#X connect 38 0 46 0;
#X connect 39 0 31 0;
#X connect 39 0 50 0;
#X connect 40 0 39 0;
#X connect 41 0 32 0;
#X connect 41 0 45 0;
#X connect 42 0 41 0;
#X connect 43 0 37 0;
#X connect 43 0 51 0;
#X connect 44 0 43 0;
#X connect 45 0 21 0;
#X connect 45 0 29 0;
#X connect 46 0 2 0;
#X connect 46 0 1 0;
#X connect 47 0 52 0;
#X connect 47 0 34 0;
#X connect 47 0 48 0;
#X connect 47 0 49 0;
#X connect 47 0 1 0;
#X connect 47 0 28 0;
#X connect 47 0 20 0;
#X connect 48 0 35 0;
#X connect 49 0 2 0;
#X connect 50 0 29 0;
#X connect 50 0 21 0;
#X connect 51 0 21 0;
#X connect 51 0 29 0;
#X connect 52 0 5 0;
#X connect 53 0 24 1;
#X connect 54 0 23 1;
