#N canvas 642 74 1009 462 10;
#X obj 220 -20 dumpOSC 12000;
#X obj 194 19 route /msg;
#X obj 251 51 route B;
#X obj 162 57 route A;
#X obj 322 54 route C;
#X obj 411 48 route D;
#X floatatom 85 120 5 0 0 0 - - -;
#X obj 290 330 dac~ 1 2;
#X obj 662 203 vsl 15 128 0 1 0 0 empty empty empty 0 -9 0 10 -13381
-1 -1 6500 1;
#X floatatom 652 345 5 0 0 0 - - -;
#X obj 264 227 *~;
#X obj 529 211 *~;
#X obj 172 112 kofSoo;
#X obj 276 85 + 120;
#X obj 339 87 + 120;
#X obj 407 89 + 120;
#X floatatom 488 -12 5 0 0 0 - - -;
#X obj 491 90 + 120;
#X obj 565 91 + 120;
#X obj 639 92 + 120;
#X obj 717 89 + 120;
#X obj 186 171 +~;
#X obj 253 165 +~;
#X obj 313 164 +~;
#X obj 387 163 +~;
#X obj 454 157 +~;
#X obj 514 156 +~;
#X obj 600 165 +~;
#X obj 667 159 +~;
#X obj 48 -33 loadbang;
#X obj 57 -8 t b b;
#X obj 495 49 route E;
#X obj 569 50 route F;
#X obj 643 51 route G;
#X obj 721 48 route H;
#X msg 369 10 bang;
#X msg 74 62 63;
#X msg 479 -38 -2;
#X obj 250 115 kofSoo;
#X obj 305 115 kofSoo;
#X obj 369 114 kofSoo;
#X obj 453 115 kofSoo;
#X obj 527 116 kofSoo;
#X obj 601 117 kofSoo;
#X obj 679 114 kofSoo;
#X text 41 222 >> sound patch systematics;
#X connect 0 0 1 0;
#X connect 1 0 3 0;
#X connect 1 0 2 0;
#X connect 1 0 4 0;
#X connect 1 0 5 0;
#X connect 1 0 31 0;
#X connect 1 0 32 0;
#X connect 1 0 33 0;
#X connect 1 0 34 0;
#X connect 2 0 38 0;
#X connect 3 0 12 0;
#X connect 4 0 39 0;
#X connect 5 0 40 0;
#X connect 6 0 12 1;
#X connect 6 0 13 0;
#X connect 8 0 9 0;
#X connect 8 0 10 1;
#X connect 8 0 11 1;
#X connect 10 0 7 0;
#X connect 11 0 7 1;
#X connect 12 0 21 0;
#X connect 12 1 21 1;
#X connect 13 0 14 0;
#X connect 13 0 38 1;
#X connect 14 0 15 0;
#X connect 14 0 39 1;
#X connect 15 0 17 0;
#X connect 15 0 40 1;
#X connect 16 0 13 1;
#X connect 16 0 14 1;
#X connect 16 0 15 1;
#X connect 16 0 17 1;
#X connect 16 0 18 1;
#X connect 16 0 19 1;
#X connect 16 0 20 1;
#X connect 16 0 35 0;
#X connect 17 0 18 0;
#X connect 17 0 41 1;
#X connect 18 0 19 0;
#X connect 18 0 42 1;
#X connect 19 0 20 0;
#X connect 19 0 43 1;
#X connect 20 0 44 1;
#X connect 21 0 10 0;
#X connect 22 0 10 0;
#X connect 23 0 10 0;
#X connect 24 0 10 0;
#X connect 25 0 11 0;
#X connect 26 0 11 0;
#X connect 27 0 11 0;
#X connect 28 0 11 0;
#X connect 29 0 30 0;
#X connect 30 0 36 0;
#X connect 30 1 37 0;
#X connect 31 0 41 0;
#X connect 32 0 42 0;
#X connect 33 0 43 0;
#X connect 34 0 44 0;
#X connect 35 0 6 0;
#X connect 36 0 6 0;
#X connect 37 0 16 0;
#X connect 38 0 22 0;
#X connect 38 1 22 1;
#X connect 39 0 23 0;
#X connect 39 1 23 1;
#X connect 40 0 24 0;
#X connect 40 1 24 1;
#X connect 41 0 25 0;
#X connect 41 1 25 1;
#X connect 42 0 26 0;
#X connect 42 1 26 1;
#X connect 43 0 27 0;
#X connect 43 1 27 1;
#X connect 44 0 28 0;
#X connect 44 1 28 1;
